<svg xmlns="http://www.w3.org/2000/svg" version="1.1" xmlns:xlink="http://www.w3.org/1999/xlink" width="1000" height="1000"><style>
    #light-icon {
      display: inline;
    }
    #dark-icon {
      display: none;
    }

    @media (prefers-color-scheme: dark) {
      #light-icon {
        display: none;
      }
      #dark-icon {
        display: inline;
      }
    }
  </style><g id="light-icon"><svg xmlns="http://www.w3.org/2000/svg" version="1.1" xmlns:xlink="http://www.w3.org/1999/xlink" width="1000" height="1000"><g><g transform="matrix(2,0,0,2,0,0)"><svg xmlns="http://www.w3.org/2000/svg" version="1.1" xmlns:xlink="http://www.w3.org/1999/xlink" width="500" height="500"><svg xmlns="http://www.w3.org/2000/svg" xmlns:xlink="http://www.w3.org/1999/xlink" width="500" zoomAndPan="magnify" viewBox="0 0 375 374.999991" height="500" preserveAspectRatio="xMidYMid meet" version="1.0"><defs><clipPath id="13c93d1167"><path d="M 0 46.484375 L 375 46.484375 L 375 328.484375 L 0 328.484375 Z M 0 46.484375 " clip-rule="nonzero"></path></clipPath></defs><g clip-path="url(#13c93d1167)"><path fill="#181d25" d="M 194.390625 55.933594 L 194.390625 162.277344 C 180.175781 162.277344 170.414062 164.933594 165.105469 170.242188 C 159.796875 175.554688 156.421875 186.03125 154.984375 201.6875 C 150.304688 253.691406 130.152344 290.398438 94.523438 311.8125 C 75.632812 322.96875 48.816406 328.546875 14.089844 328.546875 L 0.0546875 328.546875 L 0.0546875 221.660156 L 4.640625 221.660156 C 20.835938 221.660156 32.394531 218.285156 39.324219 211.539062 C 46.25 204.792969 50.257812 192.960938 51.339844 176.042969 C 52.777344 148.511719 55.335938 129.171875 59.03125 118.015625 C 62.714844 106.859375 70.234375 95.792969 81.570312 84.8125 C 101.359375 65.5625 128.804688 55.933594 163.890625 55.933594 Z M 374.96875 49.457031 L 374.96875 157.421875 C 367.945312 153.464844 361.558594 151.484375 355.800781 151.484375 C 337.449219 151.484375 328.273438 165.519531 328.273438 193.589844 L 328.273438 321.261719 L 227.320312 321.261719 L 227.320312 174.15625 C 227.320312 135.289062 237.9375 104.292969 259.175781 81.167969 C 280.402344 58.050781 308.746094 46.484375 344.195312 46.484375 C 352.113281 46.484375 362.371094 47.476562 374.96875 49.457031 Z M 374.96875 49.457031 " fill-opacity="1" fill-rule="nonzero"></path></g></svg></svg></g></g></svg></g><g id="dark-icon"><svg xmlns="http://www.w3.org/2000/svg" version="1.1" xmlns:xlink="http://www.w3.org/1999/xlink" width="1000" height="1000"><g><g transform="matrix(2,0,0,2,0,0)"><svg xmlns="http://www.w3.org/2000/svg" version="1.1" xmlns:xlink="http://www.w3.org/1999/xlink" width="500" height="500"><svg xmlns="http://www.w3.org/2000/svg" xmlns:xlink="http://www.w3.org/1999/xlink" width="500" zoomAndPan="magnify" viewBox="0 0 375 374.999991" height="500" preserveAspectRatio="xMidYMid meet" version="1.0"><defs><clipPath id="21950c413a"><path d="M 0 46.484375 L 375 46.484375 L 375 328.484375 L 0 328.484375 Z M 0 46.484375 " clip-rule="nonzero"></path></clipPath></defs><g clip-path="url(#21950c413a)"><path fill="#ffffff" d="M 194.390625 55.933594 L 194.390625 162.277344 C 180.175781 162.277344 170.414062 164.933594 165.105469 170.242188 C 159.796875 175.554688 156.421875 186.03125 154.984375 201.6875 C 150.304688 253.691406 130.152344 290.398438 94.523438 311.8125 C 75.632812 322.96875 48.816406 328.546875 14.089844 328.546875 L 0.0546875 328.546875 L 0.0546875 221.660156 L 4.640625 221.660156 C 20.835938 221.660156 32.394531 218.285156 39.324219 211.539062 C 46.25 204.792969 50.257812 192.960938 51.339844 176.042969 C 52.777344 148.511719 55.335938 129.171875 59.03125 118.011719 C 62.714844 106.859375 70.234375 95.792969 81.570312 84.8125 C 101.359375 65.5625 128.804688 55.933594 163.890625 55.933594 Z M 374.96875 49.457031 L 374.96875 157.421875 C 367.945312 153.464844 361.558594 151.484375 355.800781 151.484375 C 337.449219 151.484375 328.273438 165.519531 328.273438 193.589844 L 328.273438 321.261719 L 227.320312 321.261719 L 227.320312 174.15625 C 227.320312 135.289062 237.9375 104.292969 259.175781 81.167969 C 280.402344 58.050781 308.746094 46.484375 344.195312 46.484375 C 352.113281 46.484375 362.371094 47.476562 374.96875 49.457031 Z M 374.96875 49.457031 " fill-opacity="1" fill-rule="nonzero"></path></g></svg></svg></g></g></svg></g></svg>