<svg version="1.1" xmlns="http://www.w3.org/2000/svg" xmlns:xlink="http://www.w3.org/1999/xlink" x="0" y="0" width="150.038" height="45.433" viewBox="0, 0, 300.077, 90.866" preserveAspectRatio="xMinYMid meet">
  <g id="Background">
    <rect x="0" y="0" width="300.077" height="90.866" fill="#000000" fill-opacity="0"></rect>
  </g>
  <g id="logo-gray">
    <path d="M21.539,38.04 C21.639,41.188 22.838,44.201 24.928,46.557 C26.938,48.674 29.762,49.824 32.679,49.715 C34.596,49.754 36.488,49.274 38.155,48.327 C39.658,47.504 40.76,46.105 41.208,44.451 L53.808,44.451 C52.321,49.3 50.12,53.033 46.437,55.651 C42.57,58.324 37.954,59.698 33.255,59.575 C19.689,59.573 10,51.024 10,33.925 C9.954,30.575 10.478,27.242 11.551,24.068 C12.508,21.261 14.043,18.685 16.058,16.508 C18.071,14.374 20.539,12.722 23.279,11.675 C26.205,10.507 29.336,9.937 32.486,10 C39.852,10 44.947,12.33 48.727,16.986 C52.507,21.642 54.254,28.661 54.254,38.04 z M41.887,30.192 C41.856,28.634 41.544,27.094 40.966,25.646 C40.472,24.422 39.73,23.314 38.785,22.392 C37.898,21.543 36.842,20.89 35.685,20.478 C34.535,20.066 33.322,19.856 32.1,19.857 C29.496,19.828 26.981,20.805 25.079,22.584 C23.131,24.647 22.01,27.355 21.929,30.192 z" fill="#D51317" id="e-3"></path>
    <path d="M58.295,80.866 L58.295,10.5 L70.258,10.5 L70.358,16.266 C73.127,11.818 77.594,10.239 83.464,10.239 C86.129,10.215 88.763,10.805 91.164,11.962 C93.671,13.102 95.882,14.804 97.624,16.938 C99.512,19.299 100.94,21.993 101.835,24.881 C102.902,28.318 103.42,31.902 103.37,35.5 C103.405,38.814 102.97,42.117 102.078,45.309 C101.308,48.088 100.026,50.7 98.298,53.009 C96.692,55.135 94.611,56.855 92.221,58.033 C89.839,59.248 87.194,59.856 84.521,59.804 C78.715,59.804 74.057,58.304 70.549,53.392 L70.549,80.866 z M81.455,49.189 Q92.172,49.189 92.173,34.643 C92.336,30.981 91.294,27.367 89.206,24.355 C87.477,21.836 84.605,20.347 81.55,20.383 C78.595,20.361 75.805,21.747 74.038,24.115 C71.926,26.918 70.86,30.37 71.023,33.876 Q71.023,49.19 81.455,49.189 z" fill="#2C2926" id="p-2"></path>
    <path d="M147.1,20.79 C146.493,18.595 145.345,16.588 143.76,14.952 C142.014,13.276 139.89,12.045 137.568,11.363 C134.574,10.467 131.457,10.048 128.332,10.12 C125.103,10.052 121.881,10.456 118.769,11.32 C116.425,11.972 114.253,13.133 112.408,14.72 C110.802,16.202 109.587,18.056 108.869,20.12 C108.074,22.311 107.67,24.625 107.675,26.956 L119.255,26.956 C119.434,25.007 120.259,23.173 121.6,21.747 C122.844,20.472 124.9,19.764 127.773,19.764 C129.781,19.657 131.781,20.091 133.563,21.022 C134.898,21.71 135.731,23.092 135.716,24.594 C135.838,25.99 135.221,27.348 134.089,28.174 Q132.461,29.274 127.773,29.94 Q123.085,30.606 119.112,31.421 C116.704,31.873 114.39,32.73 112.269,33.956 C110.364,35.093 108.807,36.732 107.769,38.693 C106.574,41.215 106.015,43.991 106.142,46.779 C106.01,50.287 107.386,53.683 109.922,56.11 Q113.701,59.699 121.837,59.699 C124.714,59.755 127.574,59.252 130.259,58.216 C132.497,57.309 134.495,55.897 136.097,54.09 C136.187,55.468 136.444,56.831 136.863,58.147 L148.035,58.147 L148.035,28.686 C148.107,26.023 147.792,23.363 147.1,20.79 z M134.519,44.524 C133.315,47.037 131.191,48.99 128.586,49.979 C127.168,50.53 125.657,50.806 124.136,50.792 Q118.107,50.792 118.107,45.529 C117.999,43.736 118.744,41.998 120.117,40.84 Q122.127,39.214 127.486,38.16 Q128.761,37.913 129.812,37.678 L129.812,37.678 C129.812,37.678 133.251,36.941 135.512,36.327 L135.434,40.552 C135.438,41.929 135.125,43.288 134.519,44.524 z" fill="#2C2926"></path>
    <path d="M185.526,52.85 C185.158,53.735 184.582,54.52 183.848,55.137 C182.887,55.981 181.828,56.707 180.694,57.3 C178.157,58.442 175.386,58.966 172.607,58.831 C169.373,58.946 166.162,58.237 163.276,56.773 C160.743,55.5 158.547,53.647 156.864,51.366 C155.192,49.036 153.989,46.403 153.323,43.614 C152.588,40.671 152.218,37.648 152.223,34.614 C152.184,31.212 152.734,27.828 153.85,24.614 C154.822,21.779 156.314,19.15 158.25,16.862 C160.048,14.767 162.266,13.073 164.76,11.89 C167.103,10.707 169.695,10.1 172.32,10.12 C178.189,10.12 182.591,11.52 185.526,16.245 L185.526,10.5 L197.626,10.5 L197.626,58.927 C197.626,62.499 197.359,65.641 196.148,68.353 C195.013,70.959 193.314,73.28 191.172,75.148 C188.982,77.014 186.445,78.428 183.707,79.311 C177.764,81.208 171.381,81.225 165.428,79.359 C162.791,78.526 160.338,77.194 158.203,75.435 C156.195,73.746 154.578,71.639 153.466,69.262 C152.284,66.682 151.695,63.87 151.743,61.032 L163.323,61.032 C163.178,63.567 164.222,66.026 166.146,67.683 C168.292,69.333 170.956,70.165 173.659,70.028 C176.697,70.119 179.673,69.155 182.081,67.3 C184.357,65.527 185.64,62.766 185.526,59.883 z M174.09,49.07 C177.026,49.128 179.828,47.842 181.698,45.577 Q184.713,42.085 184.713,36.055 Q184.713,20.935 174.09,20.934 Q163.467,20.933 163.467,35.289 Q163.467,41.605 166.481,45.338 C168.279,47.722 171.104,49.108 174.09,49.07 z" fill="#2C2926" id="g-2"></path>
    <path d="M288.976,38.495 C288.284,36.824 287.098,35.405 285.576,34.428 C283.474,33.169 281.202,32.218 278.829,31.605 Q274.616,30.405 268.493,28.686 C266.513,28.186 264.601,27.447 262.799,26.486 C261.616,25.921 260.856,24.734 260.837,23.424 C260.762,22.075 261.55,20.827 262.799,20.314 C264.646,19.615 266.617,19.305 268.589,19.405 C270.702,19.279 272.799,19.836 274.57,20.995 C275.723,21.902 276.506,23.2 276.77,24.643 L288.862,24.643 C288.613,20.675 286.795,16.969 283.81,14.343 C280.682,11.6 275.737,10.173 268.975,10.173 C265.816,10.1 262.661,10.461 259.6,11.247 C257.366,11.826 255.258,12.81 253.38,14.152 C251.952,15.248 250.831,16.695 250.126,18.352 C249.393,19.941 249.018,21.671 249.026,23.421 C249.001,25.24 249.276,27.05 249.84,28.779 C250.379,30.492 251.391,32.017 252.759,33.179 C254.73,34.753 256.944,35.998 259.314,36.863 C262.926,38.216 266.637,39.288 270.414,40.069 C272.405,40.439 274.326,41.117 276.108,42.079 C277.373,42.882 278.091,44.317 277.974,45.811 C277.957,47.375 276.932,48.749 275.438,49.211 C273.509,49.99 271.441,50.364 269.361,50.311 C266.933,50.375 264.544,49.69 262.519,48.347 C261.133,47.413 260.211,45.932 259.987,44.276 L247.14,44.276 C247.265,46.251 247.808,48.177 248.735,49.926 C249.816,51.993 251.355,53.786 253.235,55.167 C255.357,56.699 257.74,57.83 260.269,58.505 C263.264,59.31 266.355,59.702 269.456,59.672 Q279.792,59.672 285.056,55.518 C288.336,53.053 290.211,49.144 290.08,45.043 C290.169,42.807 289.793,40.578 288.976,38.495 z" fill="#2C2926"></path>
    <path d="M212.461,38.04 C212.561,41.188 213.76,44.201 215.85,46.557 C217.86,48.674 220.684,49.824 223.601,49.715 C225.518,49.754 227.41,49.274 229.077,48.327 C230.58,47.504 231.682,46.105 232.13,44.451 L244.73,44.451 C243.243,49.3 241.042,53.033 237.359,55.651 C233.492,58.324 228.876,59.698 224.177,59.575 C210.606,59.575 200.916,51.026 200.916,33.927 C200.87,30.577 201.394,27.244 202.467,24.07 C203.424,21.263 204.959,18.687 206.974,16.51 C208.988,14.375 211.458,12.722 214.2,11.675 C217.126,10.507 220.258,9.937 223.408,10 C230.774,10 235.869,12.33 239.649,16.986 C243.429,21.642 245.176,28.661 245.176,38.04 z M232.809,30.192 C232.778,28.634 232.466,27.094 231.888,25.646 C231.394,24.422 230.652,23.314 229.707,22.392 C228.82,21.543 227.764,20.89 226.607,20.478 C225.456,20.066 224.243,19.855 223.021,19.856 C220.416,19.827 217.901,20.805 216,22.585 C214.052,24.648 212.931,27.356 212.85,30.193 z" fill="#2C2926" id="e-4"></path>
  </g>
</svg>
