<svg width="170" height="170" viewBox="40 40 90 90" fill="none" xmlns="http://www.w3.org/2000/svg">
<path d="M130 40H40V130H130V40Z" fill="#F41112"/>
<path d="M67.825 70.45H53.5V71.125C55.15 71.2 55.675 71.425 55.675 73.15V84.7749C55.675 86.5749 55.15 86.7249 53.5 86.7999V87.3999H61.525V86.7999C59.5 86.7249 59.05 86.4999 59.05 84.7749V79.2249H61.975C64.15 79.2249 65.2 79.7499 65.575 81.6999H66.25V75.6999H65.575C65.275 77.4999 64.675 77.9499 61.975 77.9499H59.05V72.55C59.05 71.875 59.2 71.725 60.025 71.725H62.575C65.95 71.725 66.55 72.325 67.15 74.1999H67.825V70.45Z" fill="white"/>
<path d="M78.7 85.675L75.4 80.8L77.2 78.55C78.4 77.125 79.075 76.375 80.125 76.3V75.625H75.475V76.3C76.3 76.3 76.675 76.525 76.675 77.05C76.675 77.5 76.15 78.1 75.7 78.55L74.65 79.75L73.45 77.95C73.15 77.575 72.925 77.275 72.925 76.9C72.925 76.525 73.375 76.3 74.125 76.3V75.625H67.9V76.3C68.8 76.525 69.175 77.05 69.625 77.725L72.7 82.225L70.15 85.225C69.25 86.275 68.8 86.65 67.75 86.8V87.4H72.325V86.8C71.725 86.8 71.05 86.65 71.05 86.275C71.05 85.9 71.5 85.375 72.25 84.475L73.3 83.2L74.575 85.075C75.025 85.75 75.25 86.05 75.25 86.275C75.25 86.575 74.8 86.725 73.975 86.725V87.325H80.35V86.725C79.825 86.875 79.375 86.725 78.7 85.675Z" fill="white"/>
<path d="M89.4234 70.45H81.3984V71.125C83.1234 71.2 83.5734 71.425 83.5734 73.15V84.7749C83.5734 86.5749 83.1234 86.7249 81.3984 86.7999V87.3999H89.2734V86.7999C87.4734 86.7249 87.0234 86.4999 87.0234 84.7749V80.3499H89.2734C93.6234 80.3499 95.9484 78.6249 95.9484 75.4C95.8734 72.625 94.0734 70.45 89.4234 70.45ZM86.9484 79.3749V72.4C86.9484 71.8 87.1734 71.425 88.3734 71.425C90.6234 71.425 92.3484 72.7 92.3484 75.025C92.3484 77.7249 90.9234 79.3749 86.9484 79.3749Z" fill="white"/>
<path d="M103.9 75.3999C102.475 75.3999 101.575 76.5249 101.125 77.5749H101.05V75.7749C101.05 75.5499 101.05 75.3999 100.9 75.3999C100.675 75.3999 97.9 76.1499 96.625 76.3749V77.0499C97.75 77.0499 98.05 77.2749 98.05 78.5499V85.3749C98.05 86.4249 97.6 86.6499 96.625 86.7999V87.3999H102.85V86.7999C101.725 86.7999 101.05 86.4999 101.05 85.2249V78.6249C101.425 78.0249 101.875 77.6499 102.325 77.6499C102.625 77.6499 102.85 77.7999 103 77.8749C103.225 78.0249 103.525 78.3999 104.2 78.3999C104.95 78.3999 105.55 77.7999 105.55 77.0499C105.625 76.2999 105.1 75.3999 103.9 75.3999Z" fill="white"/>
<path d="M111.098 75.3999C107.723 75.3999 105.398 78.0249 105.398 81.6249C105.398 85.2249 107.723 87.8499 111.098 87.8499C114.473 87.8499 116.798 85.2249 116.798 81.6249C116.798 78.0249 114.473 75.3999 111.098 75.3999ZM111.098 86.7999C109.298 86.7999 108.623 85.2249 108.623 81.6249C108.623 78.0249 109.373 76.4499 111.098 76.4499C112.898 76.4499 113.573 78.0249 113.573 81.6249C113.648 85.2249 112.898 86.7999 111.098 86.7999Z" fill="white"/>
<path d="M69.3086 99.625C68.8515 99.625 68.4307 99.5505 68.046 99.4016C67.6669 99.2469 67.3353 99.032 67.051 98.757C66.7667 98.4763 66.5465 98.1469 66.3904 97.7688C66.2343 97.3906 66.1562 96.9781 66.1562 96.5312C66.1562 96.0844 66.2343 95.6719 66.3904 95.2937C66.5465 94.9156 66.7667 94.5891 67.051 94.3141C67.3408 94.0333 67.6781 93.8185 68.0627 93.6695C68.4474 93.5148 68.8683 93.4375 69.3254 93.4375C69.8215 93.4375 70.2675 93.5206 70.6632 93.6867C71.0646 93.8529 71.4019 94.0964 71.675 94.4172L70.9894 95.1047C70.7608 94.8698 70.5127 94.6979 70.2452 94.5891C69.9832 94.4745 69.6933 94.4172 69.3755 94.4172C69.0689 94.4172 68.7846 94.4688 68.5226 94.5719C68.2606 94.675 68.0349 94.8211 67.8453 95.0102C67.6558 95.1992 67.5081 95.4227 67.4022 95.6805C67.3018 95.9383 67.2516 96.2219 67.2516 96.5312C67.2516 96.8349 67.3018 97.1156 67.4022 97.3734C67.5081 97.6312 67.6558 97.8576 67.8453 98.0523C68.0349 98.2414 68.2578 98.3875 68.5143 98.4906C68.7707 98.5938 69.055 98.6453 69.3672 98.6453C69.657 98.6453 69.9358 98.5995 70.2033 98.5078C70.4765 98.4104 70.7357 98.25 70.981 98.0266L71.5998 98.8602C71.2932 99.1122 70.9364 99.3042 70.5295 99.4359C70.1281 99.562 69.7212 99.625 69.3086 99.625ZM70.5713 98.7141V96.4625H71.5998V98.8602L70.5713 98.7141Z" fill="white"/>
<path d="M73.8697 99.5391V93.5234H76.2779C76.7963 93.5234 77.2395 93.6094 77.6074 93.7813C77.9809 93.9531 78.268 94.1995 78.4686 94.5203C78.6693 94.8411 78.7697 95.2221 78.7697 95.6633C78.7697 96.1044 78.6693 96.4854 78.4686 96.8063C78.268 97.1214 77.9809 97.3648 77.6074 97.5367C77.2395 97.7029 76.7963 97.7859 76.2779 97.7859H74.4717L74.9567 97.2789V99.5391H73.8697ZM77.6994 99.5391L76.2193 97.3563H77.3816L78.87 99.5391H77.6994ZM74.9567 97.3992L74.4717 96.8664H76.2277C76.7071 96.8664 77.0666 96.7604 77.3063 96.5484C77.5516 96.3365 77.6743 96.0414 77.6743 95.6633C77.6743 95.2794 77.5516 94.9844 77.3063 94.7781C77.0666 94.5719 76.7071 94.4688 76.2277 94.4688H74.4717L74.9567 93.9187V97.3992Z" fill="white"/>
<path d="M83.5647 99.625C83.1076 99.625 82.6867 99.5477 82.3021 99.393C81.9174 99.2383 81.5829 99.0234 81.2986 98.7484C81.0143 98.4677 80.7941 98.1411 80.6381 97.7688C80.482 97.3906 80.4039 96.9781 80.4039 96.5312C80.4039 96.0844 80.482 95.6747 80.6381 95.3023C80.7941 94.9242 81.0143 94.5977 81.2986 94.3227C81.5829 94.0419 81.9174 93.8242 82.3021 93.6695C82.6867 93.5148 83.1048 93.4375 83.5563 93.4375C84.0134 93.4375 84.4315 93.5148 84.8106 93.6695C85.1952 93.8242 85.5297 94.0419 85.814 94.3227C86.0983 94.5977 86.3185 94.9242 86.4746 95.3023C86.6307 95.6747 86.7087 96.0844 86.7087 96.5312C86.7087 96.9781 86.6307 97.3906 86.4746 97.7688C86.3185 98.1469 86.0983 98.4734 85.814 98.7484C85.5297 99.0234 85.1952 99.2383 84.8106 99.393C84.4315 99.5477 84.0162 99.625 83.5647 99.625ZM83.5563 98.6453C83.8518 98.6453 84.1249 98.5938 84.3758 98.4906C84.6266 98.3875 84.844 98.2414 85.028 98.0523C85.212 97.8576 85.3541 97.6341 85.4544 97.382C85.5604 97.1242 85.6133 96.8406 85.6133 96.5312C85.6133 96.2219 85.5604 95.9411 85.4544 95.6891C85.3541 95.4312 85.212 95.2078 85.028 95.0188C84.844 94.824 84.6266 94.675 84.3758 94.5719C84.1249 94.4688 83.8518 94.4172 83.5563 94.4172C83.2609 94.4172 82.9877 94.4688 82.7369 94.5719C82.4916 94.675 82.2742 94.824 82.0846 95.0188C81.9007 95.2078 81.7557 95.4312 81.6498 95.6891C81.5495 95.9411 81.4993 96.2219 81.4993 96.5312C81.4993 96.8349 81.5495 97.1156 81.6498 97.3734C81.7557 97.6312 81.9007 97.8576 82.0846 98.0523C82.2686 98.2414 82.486 98.3875 82.7369 98.4906C82.9877 98.5938 83.2609 98.6453 83.5563 98.6453Z" fill="white"/>
<path d="M91.214 99.625C90.4113 99.625 89.7814 99.393 89.3242 98.9289C88.8727 98.4648 88.6469 97.7945 88.6469 96.918V93.5234H89.734V96.875C89.734 97.4938 89.8622 97.9435 90.1186 98.2242C90.3806 98.5049 90.7485 98.6453 91.2224 98.6453C91.6962 98.6453 92.0613 98.5049 92.3178 98.2242C92.5742 97.9435 92.7024 97.4938 92.7024 96.875V93.5234H93.7727V96.918C93.7727 97.7945 93.5442 98.4648 93.087 98.9289C92.6355 99.393 92.0112 99.625 91.214 99.625Z" fill="white"/>
<path d="M96.1313 99.5391V93.5234H98.5394C99.0579 93.5234 99.501 93.6094 99.869 93.7813C100.242 93.9531 100.53 94.1995 100.73 94.5203C100.931 94.8411 101.031 95.2221 101.031 95.6633C101.031 96.1044 100.931 96.4854 100.73 96.8063C100.53 97.1271 100.242 97.3734 99.869 97.5453C99.501 97.7172 99.0579 97.8031 98.5394 97.8031H96.7333L97.2183 97.2789V99.5391H96.1313ZM97.2183 97.3992L96.7333 96.8578H98.4893C98.9687 96.8578 99.3282 96.7547 99.5679 96.5484C99.8132 96.3365 99.9359 96.0414 99.9359 95.6633C99.9359 95.2794 99.8132 94.9844 99.5679 94.7781C99.3282 94.5719 98.9687 94.4688 98.4893 94.4688H96.7333L97.2183 93.9187V97.3992Z" fill="white"/>
</svg>
